<?xml version="1.0" standalone="no"?>
<!DOCTYPE svg PUBLIC "-//W3C//DTD SVG 20010904//EN"
 "http://www.w3.org/TR/2001/REC-SVG-20010904/DTD/svg10.dtd">
<svg version="1.0" xmlns="http://www.w3.org/2000/svg"
 width="256.000000pt" height="166.000000pt" viewBox="0 0 256.000000 166.000000"
 preserveAspectRatio="xMidYMid meet">

<g transform="translate(0.000000,166.000000) scale(0.100000,-0.100000)"
fill="#000000" stroke="none">
<path d="M450 1124 c0 -9 9 -18 20 -21 19 -5 20 -14 20 -138 0 -125 -1 -134
-20 -140 -11 -3 -20 -13 -20 -21 0 -20 180 -20 220 1 55 28 62 116 13 155 -23
18 -24 21 -9 35 37 37 29 110 -15 132 -14 7 -63 13 -116 13 -79 0 -93 -2 -93
-16z m168 -26 c7 -7 12 -28 12 -48 0 -43 -15 -60 -52 -60 -27 0 -28 2 -28 53
0 30 3 57 7 60 11 11 48 8 61 -5z m13 -164 c16 -19 15 -79 -1 -99 -7 -8 -28
-15 -46 -15 l-34 0 0 65 0 65 34 0 c18 0 39 -7 47 -16z"/>
<path d="M823 1120 c-50 -30 -68 -73 -68 -165 0 -57 5 -89 18 -112 31 -58 102
-79 161 -48 20 11 33 12 40 5 19 -19 24 -10 31 58 4 37 12 70 17 73 6 4 8 14
5 23 -10 25 -120 19 -125 -6 -2 -13 3 -18 17 -18 18 0 21 -6 21 -50 0 -45 -3
-50 -25 -56 -60 -15 -88 28 -87 135 0 92 19 137 59 147 34 9 57 -6 63 -42 4
-20 12 -30 28 -32 20 -3 22 1 22 43 0 40 -3 47 -26 55 -42 17 -116 12 -151
-10z"/>
<path d="M1060 1116 c0 -7 9 -16 20 -19 19 -5 20 -14 20 -140 0 -129 -1 -135
-21 -140 -12 -3 -19 -12 -17 -19 4 -10 33 -13 119 -13 l114 0 3 58 c4 70 -18
80 -37 16 -12 -39 -13 -40 -53 -37 l-41 3 1 45 c1 229 1 228 24 232 12 2 23 9
26 16 3 9 -17 12 -77 12 -62 0 -81 -3 -81 -14z"/>
<path d="M1622 1108 c-17 -17 -15 -112 4 -156 28 -69 69 -99 159 -117 l30 -6
-3 103 c-1 57 -5 122 -8 146 l-5 42 -83 0 c-50 0 -87 -5 -94 -12z m102 -139
c17 -93 16 -107 -4 -94 -40 25 -57 185 -20 185 4 0 15 -41 24 -91z m-67 59
c-3 -8 -6 -5 -6 6 -1 11 2 17 5 13 3 -3 4 -12 1 -19z"/>
<path d="M1845 969 c4 -79 9 -145 10 -147 1 -1 69 -17 151 -36 127 -29 151
-32 164 -20 17 16 -11 46 -213 237 l-119 111 7 -145z m47 -32 c9 -72 11 -106
4 -104 -6 2 -16 44 -23 93 -14 114 -15 141 -4 129 5 -6 15 -58 23 -118z m101
-55 c8 -37 13 -69 11 -71 -2 -3 -21 0 -41 5 -42 10 -46 22 -58 149 l-6 70 40
-43 c31 -33 42 -57 54 -110z"/>
<path d="M200 851 c0 -5 7 -12 16 -15 14 -5 15 -4 4 9 -14 17 -20 19 -20 6z"/>
<path d="M1612 795 c0 -16 2 -22 5 -12 2 9 2 23 0 30 -3 6 -5 -1 -5 -18z"/>
<path d="M1632 795 c0 -16 2 -22 5 -12 2 9 2 23 0 30 -3 6 -5 -1 -5 -18z"/>
<path d="M186 753 c-3 -21 -6 -80 -6 -130 0 -132 1 -133 174 -133 l134 0 12
-29 c22 -55 55 -76 120 -76 65 0 98 21 120 76 l12 29 598 0 598 0 6 -24 c3
-13 22 -38 41 -55 40 -35 96 -42 144 -17 31 16 61 56 61 81 0 12 15 15 78 15
47 0 83 5 90 12 15 15 16 64 2 73 -6 4 -7 23 -4 46 l7 39 -45 0 c-25 0 -59 -5
-77 -11 -28 -10 -35 -9 -54 9 -30 28 -70 42 -120 42 -46 0 -114 -27 -136 -54
-14 -16 -41 -17 -408 -10 -333 6 -393 5 -393 -7 0 -11 -2 -11 -9 -1 -6 11 -98
13 -454 14 l-447 1 0 73 c0 66 -2 74 -19 74 -14 0 -20 -10 -25 -37z m229 -133
c4 -6 -5 -10 -19 -10 -14 0 -26 5 -26 10 0 6 9 10 19 10 11 0 23 -4 26 -10z
m945 0 c0 -5 -11 -10 -25 -10 -14 0 -25 5 -25 10 0 6 11 10 25 10 14 0 25 -4
25 -10z m680 -4 c0 -2 -7 -7 -16 -10 -8 -3 -12 -2 -9 4 6 10 25 14 25 6z
m-1502 -35 c-13 -15 -25 -27 -27 -25 -4 4 39 54 47 54 2 0 -7 -13 -20 -29z
m129 -16 c40 -28 37 -89 -6 -122 -54 -41 -136 27 -111 92 17 44 76 59 117 30z
m1463 -5 c30 -30 27 -83 -6 -109 -35 -28 -69 -26 -99 4 -30 30 -32 64 -4 99
26 33 79 36 109 6z"/>
</g>
</svg>
