<svg width="178" height="65" viewBox="0 0 178 65" fill="none" xmlns="http://www.w3.org/2000/svg">
<path d="M50.8219 16.0743C50.8219 18.2995 50.2989 20.3784 49.2528 22.3108C48.2649 24.2432 46.8991 25.8536 45.1557 27.1419C43.4122 28.4302 41.4072 29.2207 39.1407 29.5135V29.8649C43.6737 30.8018 47.2478 32.7342 49.863 35.6622C52.4782 38.5901 53.7858 42.1914 53.7858 46.4662C53.7858 49.7455 52.9141 52.7905 51.1706 55.6013C49.4853 58.3536 47.335 60.4032 44.7198 61.75C43.0926 62.5698 41.0876 63.1847 38.7049 63.5946C36.3221 63.9459 32.9805 64.1216 28.68 64.1216H0V59.027L7.32254 57.1824V7.81757L0 5.97297V0.878377H31.9054C38.0075 0.878377 42.7148 2.37162 46.0274 5.35811C47.5384 6.76351 48.7007 8.40315 49.5143 10.277C50.3861 12.1509 50.8219 14.0833 50.8219 16.0743ZM27.198 34.3446H18.655V57.5338H25.6289C28.3022 57.5338 30.4525 57.3874 32.0797 57.0946C33.7069 56.8018 35.0727 56.3333 36.1768 55.6892C37.746 54.8694 39.0245 53.5811 40.0125 51.8243C41.0004 50.009 41.4944 47.9302 41.4944 45.5878C41.4944 43.5383 41.1167 41.8108 40.3612 40.4054C39.6057 39 38.6467 37.8288 37.4844 36.8919C36.4384 36.0721 35.1017 35.4572 33.4745 35.0473C31.8472 34.5788 29.7551 34.3446 27.198 34.3446ZM18.655 7.29054V27.9324H26.9365C31.0046 27.9324 33.9975 26.9077 35.9153 24.8581C36.7871 24.0383 37.5426 23.0135 38.1818 21.7838C38.8211 20.4955 39.1407 19.0315 39.1407 17.3919C39.1407 15.7523 38.8211 14.2883 38.1818 13C37.5426 11.7117 36.7871 10.6869 35.9153 9.92567C34.1719 8.16892 31.2951 7.29054 27.2852 7.29054H18.655Z" fill="#2B2B29"/>
<path d="M90.1602 57.973C95.1 57.973 98.6159 56.7432 100.708 54.2838C102.8 51.7658 103.846 48.0766 103.846 43.2162V39.7027L96.5238 37.8581V32.5878H122.501V37.8581L115.179 39.7027V64.1216H108.031L105.851 57.1824C103.352 59.9932 100.737 62.0135 98.0057 63.2432C95.3324 64.4144 92.1651 65 88.5039 65C80.5421 65 74.1784 62.5405 69.413 57.6216C66.7396 54.8694 64.6475 51.3851 63.1365 47.1689C61.6836 42.9527 60.9572 38.2973 60.9572 33.2027C60.9572 27.991 61.7127 23.1599 63.2237 18.7095C64.7928 14.2004 66.9721 10.482 69.7616 7.55405C72.1444 5.03603 74.963 3.16216 78.2174 1.93243C81.4719 0.644144 85.3075 0 89.7243 0C93.2112 0 96.0879 0.468467 98.3544 1.4054C100.621 2.34234 102.829 3.98198 104.98 6.32432L106.723 0.878377H114.133V21.6081H106.2C105.445 16.9234 103.73 13.1757 101.057 10.3649C98.3835 7.4955 94.7222 6.06081 90.073 6.06081C87.4578 6.06081 85.2785 6.5 83.535 7.37838C81.7915 8.25675 80.2805 9.51576 79.002 11.1554C77.3748 13.6149 76.0091 16.6599 74.9049 20.2905C73.8007 23.8626 73.2486 27.7568 73.2486 31.973C73.2486 36.0721 73.7426 40.0248 74.7305 43.8311C75.7766 47.6374 77.2295 50.8288 79.0892 53.4054C80.2515 54.9865 81.7915 56.1577 83.7093 56.9189C85.6853 57.6216 87.8355 57.973 90.1602 57.973Z" fill="#2B2B29"/>
<path d="M146.531 7.81757V57.5338H167.626L170.59 42.3378H178V64.1216H127.004V59.027L135.198 57.1824V7.81757L127.004 5.97297V0.878377H155.597V5.97297L146.531 7.81757Z" fill="#2B2B29"/>
</svg>
