<svg width="173" height="172" viewBox="0 0 173 172" fill="none" xmlns="http://www.w3.org/2000/svg">
<path d="M152.6 113.466H163.845C165.928 113.466 167.622 111.789 167.622 109.704V83.6672C167.622 82.1729 166.727 80.8291 165.356 80.2271L154.888 75.6369L151.477 58.2864C150.182 51.6967 144.355 46.9237 137.62 46.9237H123.17V53.2124C123.17 53.6317 123.127 54.0509 123.051 54.4487H137.62C139.444 54.4487 141.106 55.2119 142.304 56.4374H134.782C133.293 56.4374 132.084 57.6414 132.084 59.1249V78.6577C132.084 80.1412 133.293 81.3452 134.782 81.3452H149.362C149.567 81.4957 149.794 81.6354 150.031 81.7429L157.974 85.2151C154.812 85.4947 152.319 88.1392 152.319 91.3642V94.4279C152.319 97.8356 155.104 100.609 158.525 100.609H160.068V105.941H151.013C148.315 100.19 142.455 96.1802 135.656 96.1802C129.008 96.1802 123.245 100.018 120.472 105.586V58.4477C119.414 59.2109 118.108 59.6624 116.695 59.6624H112.917V87.2254H107.586V94.8257H112.917V105.941H107.586V113.466H118.713C118.831 118.658 121.303 123.27 125.112 126.291H104.888V56.9749H116.695C118.777 56.9749 120.472 55.2872 120.472 53.2124V14.9747C120.472 12.8892 118.777 11.2122 116.695 11.2122H78.2963C76.2134 11.2122 74.519 12.8892 74.519 14.9747V34.7547H9.08658C7.00371 34.7547 5.30935 36.4424 5.30935 38.5172V109.704C5.30935 111.789 7.00371 113.466 9.08658 113.466H15.4647C15.5942 118.658 18.0656 123.27 21.8644 126.291H8.97866C6.89579 126.291 5.20143 127.979 5.20143 130.053V144.437C5.20143 146.512 6.89579 148.199 8.97866 148.199H14.1912V152.37C14.1912 157.014 17.9901 160.788 22.6522 160.788H27.9727C32.6349 160.788 36.423 157.014 36.423 152.37V148.199H135.786V152.37C135.786 157.014 139.585 160.788 144.247 160.788H149.567C154.229 160.788 158.028 157.014 158.028 152.37V148.199H163.241C165.324 148.199 167.018 146.512 167.018 144.437V130.053C167.018 127.979 165.324 126.291 163.241 126.291H146.2C150.01 123.27 152.481 118.658 152.6 113.466ZM137.48 75.9702V61.8124H144.473L147.247 75.9702H137.48ZM158.525 95.2341C158.082 95.2341 157.715 94.8686 157.715 94.4279V91.3642C157.715 90.9234 158.082 90.5579 158.525 90.5579H160.068V95.2341H158.525ZM82.0735 18.7372H112.917V49.4499H82.0735V18.7372ZM99.4919 56.9749V127.366H95.4989V56.9749H99.4919ZM12.8638 42.2797H74.519V53.2124C74.519 55.2872 76.2134 56.9749 78.2963 56.9749H90.1028V87.2254H12.8638V42.2797ZM17.0619 105.941H12.8638V94.8257H90.1028V105.941H83.9082C81.1993 100.19 75.35 96.1802 68.551 96.1802C61.752 96.1802 55.9027 100.19 53.1939 105.941H47.7762C45.0674 100.19 39.2073 96.1802 32.4191 96.1802C25.6201 96.1802 19.76 100.19 17.0619 105.941ZM90.1028 113.466V126.291H79.0949C82.9045 123.27 85.3759 118.658 85.4946 113.466H90.1028ZM77.9617 113.079C77.9617 114.047 77.8106 114.982 77.5408 115.863C76.3429 119.68 72.7599 122.453 68.551 122.453C64.9788 122.453 61.8707 120.464 60.2735 117.54C59.5504 116.218 59.1403 114.692 59.1403 113.079C59.1403 107.908 63.36 103.705 68.551 103.705C73.742 103.705 77.9617 107.908 77.9617 113.079ZM58.0071 126.291H42.963C46.7726 123.27 49.244 118.658 49.3627 113.466H51.6074C51.7261 118.658 54.1975 123.27 58.0071 126.291ZM41.8298 113.079C41.8298 118.25 37.6101 122.453 32.4191 122.453C32.0953 122.453 31.7716 122.432 31.4586 122.399H31.4154C31.1132 122.367 30.8111 122.324 30.5197 122.26C30.293 122.217 30.0664 122.152 29.8506 122.088C29.775 122.066 29.6995 122.055 29.6239 122.034C25.7927 120.841 22.9976 117.282 22.9976 113.079C22.9976 107.908 27.2281 103.705 32.4191 103.705C36.3042 103.705 39.6606 106.07 41.0851 109.435C41.2038 109.693 41.301 109.962 41.3873 110.241C41.3873 110.263 41.3981 110.273 41.4089 110.295C41.6787 111.176 41.8298 112.112 41.8298 113.079ZM28.8685 152.37C28.8685 152.865 28.4692 153.263 27.9727 153.263H22.6522C22.1558 153.263 21.7457 152.865 21.7457 152.37V148.199H28.8685V152.37ZM150.474 152.37C150.474 152.865 150.064 153.263 149.567 153.263H144.247C143.75 153.263 143.34 152.865 143.34 152.37V148.199H150.474V152.37ZM159.464 133.816V140.674H12.7559V133.816H159.464ZM135.656 103.705C140.847 103.705 145.067 107.908 145.067 113.079C145.067 115.992 143.729 118.594 141.635 120.314C140.016 121.647 137.923 122.453 135.656 122.453C131.372 122.453 127.767 119.594 126.623 115.702C126.386 114.864 126.246 113.993 126.246 113.079C126.246 107.908 130.465 103.705 135.656 103.705Z" fill="#1A5F7A"/>
<path d="M135.655 116.347C137.465 116.347 138.937 114.881 138.937 113.077C138.937 111.274 137.465 109.808 135.655 109.808C133.844 109.808 132.372 111.274 132.372 113.077C132.372 114.881 133.844 116.347 135.655 116.347ZM140.745 90.5579C142.235 90.5579 143.443 89.355 143.443 87.8704C143.443 86.3859 142.235 85.1829 140.745 85.1829H134.782C133.292 85.1829 132.084 86.3859 132.084 87.8704C132.084 89.355 133.292 90.5579 134.782 90.5579H140.745ZM32.4148 109.808C30.6049 109.808 29.1318 111.274 29.1318 113.077C29.1318 114.881 30.6039 116.347 32.4148 116.347C34.2257 116.347 35.6977 114.881 35.6977 113.077C35.6977 111.274 34.2246 109.808 32.4148 109.808ZM68.5489 109.808C66.739 109.808 65.267 111.274 65.267 113.077C65.267 114.881 66.739 116.347 68.5489 116.347C70.3598 116.347 71.8318 114.881 71.8318 113.077C71.8318 111.274 70.3587 109.808 68.5489 109.808ZM101.808 42.1507C101.808 40.8048 101.17 39.6158 100.193 38.8268V34.0903C100.193 32.6058 98.9858 31.4028 97.4954 31.4028C96.005 31.4028 94.7974 32.6058 94.7974 34.0903V38.8279C93.8218 39.6158 93.184 40.8048 93.184 42.1507C93.184 44.5189 95.1179 46.4464 97.4954 46.4464C99.8729 46.4464 101.808 44.52 101.808 42.1507Z" fill="#1A5F7A"/>
<path d="M83.8272 35.8781C83.8272 37.3627 85.0348 38.5656 86.5252 38.5656C88.0156 38.5656 89.2233 37.3627 89.2233 35.8781V35.5072C89.2233 30.9632 92.9336 27.2673 97.4954 27.2673C102.057 27.2673 105.768 30.9632 105.768 35.5072V35.8781C105.768 37.3627 106.975 38.5656 108.466 38.5656C109.956 38.5656 111.164 37.3627 111.164 35.8781V35.5072C111.164 28.0005 105.032 21.8923 97.4954 21.8923C89.9593 21.8923 83.8272 27.9994 83.8272 35.5072V35.8781Z" fill="#1A5F7A"/>
</svg>
