<svg width="257" height="160" viewBox="0 0 257 160" fill="none" xmlns="http://www.w3.org/2000/svg">
<path d="M73.3777 23.2459C73.3777 26.464 72.6226 29.4703 71.1122 32.2649C69.6858 35.0595 67.7139 37.3883 65.1967 39.2513C62.6794 41.1144 59.7846 42.2577 56.5122 42.6811V43.1892C63.057 44.5441 68.2174 47.3387 71.9932 51.573C75.7691 55.8072 77.6571 61.0153 77.6571 67.1973C77.6571 71.9396 76.3984 76.3432 73.8812 80.4081C71.4478 84.3883 68.3432 87.3523 64.5674 89.3C62.2179 90.4856 59.3231 91.3748 55.8829 91.9676C52.4426 92.4757 47.6179 92.7297 41.4087 92.7297H0V85.3622L10.5724 82.6946V11.3054L0 8.63783V1.27027H46.0656C54.876 1.27027 61.6725 3.42973 66.4553 7.74865C68.6369 9.78108 70.3151 12.1522 71.4898 14.8622C72.7484 17.5721 73.3777 20.3667 73.3777 23.2459ZM39.269 49.6676H26.9345V83.2027H37.0035C40.8633 83.2027 43.9679 82.991 46.3173 82.5676C48.6668 82.1441 50.6386 81.4667 52.2329 80.5351C54.4984 79.3495 56.3444 77.4865 57.7708 74.9459C59.1972 72.3207 59.9105 69.3144 59.9105 65.927C59.9105 62.9631 59.3651 60.4649 58.2743 58.4324C57.1834 56.4 55.799 54.7063 54.1208 53.3513C52.6104 52.1658 50.6806 51.2766 48.3311 50.6838C45.9817 50.0063 42.961 49.6676 39.269 49.6676ZM26.9345 10.5432V40.3946H38.8915C44.765 40.3946 49.0863 38.9126 51.8553 35.9486C53.1139 34.7631 54.2047 33.2811 55.1277 31.5027C56.0507 29.6396 56.5122 27.5225 56.5122 25.1514C56.5122 22.7802 56.0507 20.6631 55.1277 18.8C54.2047 16.9369 53.1139 15.455 51.8553 14.354C49.338 11.8135 45.1846 10.5432 39.3949 10.5432H26.9345Z" fill="#2B2B29"/>
<path d="M130.175 83.8378C137.307 83.8378 142.384 82.0595 145.404 78.5027C148.425 74.8613 149.935 69.5261 149.935 62.4973V57.4162L139.363 54.7486V47.127H176.87V54.7486L166.298 57.4162V92.7297H155.977L152.83 82.6946C149.222 86.7595 145.446 89.6811 141.503 91.4595C137.643 93.1532 133.07 94 127.784 94C116.288 94 107.1 90.4432 100.22 83.3297C96.3601 79.3495 93.3394 74.3108 91.1577 68.2135C89.06 62.1162 88.0112 55.3838 88.0112 48.0162C88.0112 40.4793 89.102 33.4928 91.2836 27.0568C93.5491 20.536 96.6957 15.1586 100.723 10.9243C104.164 7.28288 108.233 4.57297 112.932 2.7946C117.631 0.931532 123.169 0 129.546 0C134.58 0 138.734 0.677476 142.006 2.03243C145.279 3.38739 148.467 5.75856 151.572 9.14594L154.089 1.27027H164.787V31.2486H153.334C152.243 24.4739 149.768 19.0541 145.908 14.9892C142.048 10.8396 136.762 8.76486 130.049 8.76486C126.273 8.76486 123.127 9.4 120.61 10.6703C118.092 11.9405 115.911 13.7613 114.065 16.1324C111.715 19.6892 109.743 24.0928 108.149 29.3432C106.555 34.509 105.758 40.1405 105.758 46.2378C105.758 52.1658 106.471 57.882 107.897 63.3865C109.408 68.891 111.505 73.5063 114.191 77.2324C115.869 79.5189 118.092 81.2126 120.861 82.3135C123.714 83.3297 126.819 83.8378 130.175 83.8378Z" fill="#2B2B29"/>
<path d="M211.564 11.3054V83.2027H242.022L246.302 61.227H257V92.7297H183.371V85.3622L195.202 82.6946V11.3054L183.371 8.63783V1.27027H224.653V8.63783L211.564 11.3054Z" fill="#2B2B29"/>
<path d="M34.4487 120.232V147.4H46.0647L47.6967 139.096H51.7767V151H23.6967V148.216L28.2087 147.208V120.232L23.6967 119.224V116.44H39.4407V119.224L34.4487 120.232Z" fill="#2B2B29"/>
<path d="M79.6422 138.04C79.6422 140.088 79.3383 142.024 78.7303 143.848C78.1543 145.64 77.3062 147.144 76.1862 148.36C75.1302 149.48 73.8502 150.28 72.3462 150.76C70.8742 151.24 69.1463 151.48 67.1623 151.48C65.1783 151.48 63.4342 151.24 61.9302 150.76C60.4582 150.28 59.1942 149.48 58.1382 148.36C57.0182 147.144 56.1542 145.64 55.5462 143.848C54.9702 142.024 54.6822 140.088 54.6822 138.04C54.6822 135.992 54.9702 134.056 55.5462 132.232C56.1542 130.408 57.0182 128.904 58.1382 127.72C59.1942 126.6 60.4582 125.8 61.9302 125.32C63.4342 124.84 65.1783 124.6 67.1623 124.6C69.1463 124.6 70.8742 124.84 72.3462 125.32C73.8502 125.8 75.1302 126.6 76.1862 127.72C77.3062 128.904 78.1543 130.408 78.7303 132.232C79.3383 134.056 79.6422 135.992 79.6422 138.04ZM62.7942 146.344C63.2422 146.984 63.8182 147.464 64.5222 147.784C65.2582 148.104 66.1383 148.264 67.1623 148.264C68.1863 148.264 69.0662 148.104 69.8022 147.784C70.5382 147.464 71.1142 146.984 71.5302 146.344C72.5542 144.776 73.0662 142.008 73.0662 138.04C73.0662 136.024 72.9382 134.328 72.6822 132.952C72.4262 131.576 72.0422 130.504 71.5302 129.736C71.1142 129.096 70.5382 128.616 69.8022 128.296C69.0662 127.976 68.1863 127.816 67.1623 127.816C66.1383 127.816 65.2582 127.976 64.5222 128.296C63.8182 128.616 63.2422 129.096 62.7942 129.736C61.7702 131.304 61.2582 134.072 61.2582 138.04C61.2582 142.008 61.7702 144.776 62.7942 146.344Z" fill="#2B2B29"/>
<path d="M106.75 151.288C106.75 154.232 105.694 156.392 103.582 157.768C101.47 159.144 98.1102 159.832 93.5022 159.832C91.4542 159.832 89.5822 159.64 87.8862 159.256C86.2222 158.872 84.8942 158.232 83.9022 157.336C82.9102 156.472 82.4142 155.288 82.4142 153.784C82.4142 152.312 82.8782 151.128 83.8062 150.232C84.7342 149.336 86.1102 148.856 87.9342 148.792V148.6C85.5022 147.928 84.2862 146.712 84.2862 144.952C84.2862 144.312 84.4462 143.64 84.7662 142.936C85.0862 142.232 85.6142 141.608 86.3502 141.064C87.0862 140.52 88.0462 140.168 89.2302 140.008C87.5342 139.592 86.2063 138.744 85.2463 137.464C84.2862 136.152 83.8062 134.616 83.8062 132.856C83.8062 130.296 84.6702 128.28 86.3982 126.808C88.1262 125.336 90.6062 124.6 93.8382 124.6C95.9822 124.6 97.6622 124.792 98.8783 125.176C100.094 125.528 101.166 126.072 102.094 126.808L103.726 126.232L108.142 124.12H108.958V129.064H108.142L104.782 128.68H103.582C104.222 129.672 104.542 130.968 104.542 132.568C104.542 135.192 103.726 137.272 102.094 138.808C100.462 140.312 98.1103 141.064 95.0383 141.064C94.7183 141.064 94.3982 141.064 94.0782 141.064C93.7582 141.032 93.4382 141 93.1182 140.968C91.8702 141.128 90.8623 141.416 90.0943 141.832C89.3583 142.216 88.9902 142.776 88.9902 143.512C88.9902 144.088 89.2943 144.488 89.9023 144.712C90.5103 144.904 91.6142 145 93.2142 145H98.7823C101.406 145 103.39 145.528 104.734 146.584C106.078 147.608 106.75 149.176 106.75 151.288ZM95.2302 149.416H93.5502C91.4062 149.416 89.8542 149.752 88.8942 150.424C87.9342 151.096 87.4542 151.976 87.4542 153.064C87.4542 155.496 89.7423 156.712 94.3183 156.712C96.7823 156.712 98.6543 156.344 99.9342 155.608C101.214 154.904 101.854 153.864 101.854 152.488C101.854 151.368 101.358 150.584 100.366 150.136C99.3743 149.656 97.6622 149.416 95.2302 149.416ZM89.4702 132.664C89.4702 134.456 89.8543 135.832 90.6223 136.792C91.4223 137.72 92.5262 138.184 93.9342 138.184C95.6302 138.184 96.8783 137.72 97.6783 136.792C98.4783 135.832 98.8783 134.456 98.8783 132.664C98.8783 130.968 98.4783 129.688 97.6783 128.824C96.8783 127.96 95.6302 127.528 93.9342 127.528C92.4942 127.528 91.3903 127.96 90.6223 128.824C89.8543 129.688 89.4702 130.968 89.4702 132.664Z" fill="#2B2B29"/>
<path d="M114.2 128.68L110.504 127.768V125.08H120.296V147.4L123.992 148.312V151H110.504V148.312L114.2 147.4V128.68ZM113.672 117.784C113.672 116.76 113.976 115.928 114.584 115.288C115.224 114.648 116.104 114.328 117.224 114.328C118.344 114.328 119.224 114.648 119.864 115.288C120.504 115.928 120.824 116.76 120.824 117.784C120.824 118.776 120.504 119.592 119.864 120.232C119.256 120.872 118.376 121.192 117.224 121.192C116.072 121.192 115.192 120.888 114.584 120.28C113.976 119.64 113.672 118.808 113.672 117.784Z" fill="#2B2B29"/>
<path d="M136.57 148.552C138.17 148.552 139.53 148.248 140.65 147.64C141.802 147.032 142.378 146.184 142.378 145.096C142.378 144.232 142.026 143.512 141.322 142.936C140.65 142.36 139.786 141.88 138.73 141.496C137.706 141.112 136.65 140.76 135.562 140.44C134.25 140.024 132.986 139.496 131.77 138.856C130.554 138.216 129.562 137.368 128.794 136.312C128.026 135.224 127.642 133.864 127.642 132.232C127.642 129.928 128.474 128.088 130.138 126.712C131.834 125.304 134.218 124.6 137.29 124.6C140.234 124.6 142.57 125.224 144.298 126.472C146.058 127.688 146.938 129.272 146.938 131.224C146.938 132.312 146.634 133.16 146.026 133.768C145.45 134.344 144.65 134.632 143.626 134.632C142.602 134.632 141.802 134.392 141.226 133.912C140.65 133.4 140.362 132.808 140.362 132.136C140.362 131.592 140.522 131.064 140.842 130.552C141.162 130.04 141.578 129.672 142.09 129.448C141.674 128.84 141.082 128.376 140.314 128.056C139.546 127.704 138.602 127.528 137.482 127.528C136.01 127.528 134.89 127.848 134.122 128.488C133.386 129.096 133.018 129.96 133.018 131.08C133.018 131.912 133.21 132.616 133.594 133.192C133.978 133.736 134.506 134.184 135.178 134.536C135.882 134.888 136.698 135.208 137.626 135.496C138.906 135.88 140.154 136.28 141.37 136.696C142.618 137.112 143.738 137.624 144.73 138.232C145.722 138.84 146.506 139.592 147.082 140.488C147.69 141.352 147.994 142.408 147.994 143.656C147.994 145.32 147.482 146.744 146.458 147.928C145.434 149.08 144.042 149.96 142.282 150.568C140.554 151.176 138.602 151.48 136.426 151.48C133.386 151.48 131.002 150.92 129.274 149.8C127.546 148.648 126.682 147.128 126.682 145.24C126.682 143.928 127.05 142.904 127.786 142.168C128.522 141.432 129.402 141.064 130.426 141.064C131.194 141.064 131.898 141.288 132.538 141.736C133.21 142.152 133.546 142.76 133.546 143.56C133.546 144.136 133.37 144.696 133.018 145.24C132.666 145.784 132.266 146.184 131.818 146.44C132.138 146.952 132.666 147.432 133.402 147.88C134.138 148.328 135.194 148.552 136.57 148.552Z" fill="#2B2B29"/>
<path d="M149.896 128.2V125.752L154.6 125.08L155.176 119.128L160.648 118.36V125.08H166.792V128.2H160.648V143.896C160.648 144.984 160.664 145.736 160.696 146.152C160.728 146.536 160.792 146.856 160.888 147.112C160.984 147.304 161.16 147.448 161.416 147.544C161.672 147.64 162.088 147.688 162.664 147.688H166.024V149.8C164.168 150.376 162.52 150.792 161.08 151.048C159.672 151.336 158.552 151.48 157.72 151.48C156.28 151.48 155.352 150.888 154.936 149.704C154.808 149.32 154.712 148.824 154.648 148.216C154.584 147.608 154.552 146.712 154.552 145.528V128.2H149.896Z" fill="#2B2B29"/>
<path d="M172.372 128.68L168.676 127.768V125.08H178.467V147.4L182.163 148.312V151H168.676V148.312L172.372 147.4V128.68ZM171.844 117.784C171.844 116.76 172.147 115.928 172.755 115.288C173.395 114.648 174.276 114.328 175.396 114.328C176.516 114.328 177.396 114.648 178.036 115.288C178.676 115.928 178.995 116.76 178.995 117.784C178.995 118.776 178.676 119.592 178.036 120.232C177.428 120.872 176.548 121.192 175.396 121.192C174.244 121.192 173.363 120.888 172.755 120.28C172.147 119.64 171.844 118.808 171.844 117.784Z" fill="#2B2B29"/>
<path d="M197.478 124.6C199.462 124.6 201.222 124.92 202.758 125.56C204.294 126.168 205.494 127.032 206.358 128.152C207.254 129.272 207.702 130.584 207.702 132.088C207.702 133.528 207.318 134.632 206.55 135.4C205.782 136.136 204.838 136.504 203.718 136.504C202.47 136.504 201.59 136.12 201.078 135.352C200.598 134.584 200.358 133.8 200.358 133C200.358 132.2 200.55 131.512 200.934 130.936C201.35 130.328 201.958 129.912 202.758 129.688C202.342 129.112 201.67 128.648 200.742 128.296C199.846 127.944 198.838 127.768 197.718 127.768C195.702 127.768 194.134 128.504 193.014 129.976C191.894 131.448 191.334 134.088 191.334 137.896C191.334 139.624 191.446 140.984 191.67 141.976C191.894 142.968 192.198 143.832 192.582 144.568C193.094 145.496 193.75 146.232 194.55 146.776C195.35 147.288 196.374 147.544 197.622 147.544C198.934 147.544 200.31 147.24 201.75 146.632C203.222 145.992 204.438 145.016 205.398 143.704L207.99 145.72C206.518 147.768 204.79 149.24 202.806 150.136C200.822 151.032 198.71 151.48 196.47 151.48C194.102 151.48 192.086 151.032 190.422 150.136C188.79 149.208 187.51 147.864 186.582 146.104C185.43 143.96 184.854 141.352 184.854 138.28C184.854 135.496 185.35 133.08 186.342 131.032C187.366 128.984 188.822 127.4 190.71 126.28C192.598 125.16 194.854 124.6 197.478 124.6Z" fill="#2B2B29"/>
<path d="M220.945 148.552C222.545 148.552 223.905 148.248 225.025 147.64C226.177 147.032 226.753 146.184 226.753 145.096C226.753 144.232 226.401 143.512 225.697 142.936C225.025 142.36 224.161 141.88 223.105 141.496C222.081 141.112 221.025 140.76 219.937 140.44C218.625 140.024 217.361 139.496 216.145 138.856C214.929 138.216 213.937 137.368 213.169 136.312C212.401 135.224 212.017 133.864 212.017 132.232C212.017 129.928 212.849 128.088 214.513 126.712C216.209 125.304 218.593 124.6 221.665 124.6C224.609 124.6 226.945 125.224 228.673 126.472C230.433 127.688 231.313 129.272 231.313 131.224C231.313 132.312 231.009 133.16 230.401 133.768C229.825 134.344 229.025 134.632 228.001 134.632C226.977 134.632 226.177 134.392 225.601 133.912C225.025 133.4 224.737 132.808 224.737 132.136C224.737 131.592 224.897 131.064 225.217 130.552C225.537 130.04 225.953 129.672 226.465 129.448C226.049 128.84 225.457 128.376 224.689 128.056C223.921 127.704 222.977 127.528 221.857 127.528C220.385 127.528 219.265 127.848 218.497 128.488C217.761 129.096 217.393 129.96 217.393 131.08C217.393 131.912 217.585 132.616 217.969 133.192C218.353 133.736 218.881 134.184 219.553 134.536C220.257 134.888 221.073 135.208 222.001 135.496C223.281 135.88 224.529 136.28 225.745 136.696C226.993 137.112 228.113 137.624 229.105 138.232C230.097 138.84 230.881 139.592 231.457 140.488C232.065 141.352 232.369 142.408 232.369 143.656C232.369 145.32 231.857 146.744 230.833 147.928C229.809 149.08 228.417 149.96 226.657 150.568C224.929 151.176 222.977 151.48 220.801 151.48C217.761 151.48 215.377 150.92 213.649 149.8C211.921 148.648 211.057 147.128 211.057 145.24C211.057 143.928 211.425 142.904 212.161 142.168C212.897 141.432 213.777 141.064 214.801 141.064C215.569 141.064 216.273 141.288 216.913 141.736C217.585 142.152 217.921 142.76 217.921 143.56C217.921 144.136 217.745 144.696 217.393 145.24C217.041 145.784 216.641 146.184 216.193 146.44C216.513 146.952 217.041 147.432 217.777 147.88C218.513 148.328 219.569 148.552 220.945 148.552Z" fill="#2B2B29"/>
</svg>
