<svg width="68" height="110" viewBox="0 0 68 110" fill="none" xmlns="http://www.w3.org/2000/svg">
<path d="M19.5288 49.0445C21.2993 59.1072 26.8968 68.1935 35.2419 74.4957L36.571 75.5368C39.6119 77.9188 43.9851 77.8412 46.9334 75.3529L49.6945 73.0227C50.5922 72.2651 50.7422 70.9703 50.0401 70.0395L44.7976 63.0901C44.0276 62.0694 42.5332 61.8733 41.5095 62.6588L38.6911 64.8212C34.0832 60.9135 30.928 55.6295 29.7325 49.8186L33.0801 48.5423C34.2959 48.0788 34.8681 46.7303 34.3389 45.5752L30.7358 37.7111C30.2533 36.6582 29.0186 36.1358 27.8908 36.5075L24.398 37.6586C20.6707 38.8871 18.4105 42.5416 19.0561 46.2959L19.5281 49.0404L19.5288 49.0445Z" fill="#4E4E4E"/>
</svg>
