<svg width="177" height="106" viewBox="0 0 177 106" fill="none" xmlns="http://www.w3.org/2000/svg">
<path d="M159.448 15.4208C149.683 6.25662 136.673 0.795819 122.902 0.0803793C109.13 -0.63506 95.5608 3.44494 84.7827 11.5419H45.0674C44.3151 11.5419 43.5935 11.8231 43.0615 12.3236C42.5295 12.8241 42.2306 13.503 42.2306 14.2108C42.2306 14.9187 42.5295 15.5976 43.0615 16.0981C43.5935 16.5986 44.3151 16.8798 45.0674 16.8798H78.7309C75.5881 20.0581 72.8757 23.5902 70.6554 27.3955H26.0419C25.2895 27.3955 24.568 27.6767 24.036 28.1773C23.504 28.6778 23.2051 29.3567 23.2051 30.0645C23.2051 30.7724 23.504 31.4512 24.036 31.9518C24.568 32.4523 25.2895 32.7335 26.0419 32.7335H67.9321C64.498 40.6649 63.1548 49.2604 64.0173 57.7862H45.1052C44.3529 57.7862 43.6313 58.0674 43.0993 58.5679C42.5673 59.0684 42.2684 59.7473 42.2684 60.4552C42.2684 61.163 42.5673 61.8419 43.0993 62.3424C43.6313 62.8429 44.3529 63.1241 45.1052 63.1241H64.8683C65.5975 66.57 66.6936 69.938 68.1401 73.1772H26.0419C25.2895 73.1772 24.568 73.4584 24.036 73.959C23.504 74.4595 23.2051 75.1384 23.2051 75.8462C23.2051 76.5541 23.504 77.2329 24.036 77.7334C24.568 78.234 25.2895 78.5152 26.0419 78.5152H70.9202C73.0705 82.1808 75.687 85.5865 78.712 88.6573H19.1579C18.4055 88.6573 17.684 88.9384 17.152 89.439C16.62 89.9395 16.3211 90.6184 16.3211 91.3262C16.3211 92.0341 16.62 92.7129 17.152 93.2135C17.684 93.714 18.4055 93.9952 19.1579 93.9952H82.9104C83.4073 93.9894 83.8948 93.8671 84.3288 93.6393C95.4595 102.323 109.726 106.627 124.148 105.65C138.571 104.673 152.035 98.4927 161.729 88.3984C171.423 78.3042 176.598 65.0768 176.173 51.4783C175.748 37.8798 169.756 24.9615 159.448 15.4208ZM155.438 86.2552C148.391 92.8805 139.413 97.3911 129.641 99.2169C119.869 101.043 109.741 100.102 100.538 96.513C91.334 92.9242 83.4679 86.8487 77.9337 79.0546C72.3995 71.2604 69.4457 62.0974 69.4457 52.724C69.4457 43.3507 72.3995 34.1877 77.9337 26.3936C83.4679 18.5994 91.334 12.5238 100.538 8.93505C109.741 5.34625 119.869 4.4053 129.641 6.23114C139.413 8.05699 148.391 12.5676 155.438 19.1929C164.872 28.0949 170.17 40.1531 170.17 52.724C170.17 65.295 164.872 77.3531 155.438 86.2552Z" fill="#1A5F7A"/>
<path d="M119.808 13.0186C111.463 13.0186 103.305 15.3467 96.3668 19.7086C89.4282 24.0705 84.0203 30.2702 80.8268 37.5238C77.6333 44.7774 76.7978 52.759 78.4258 60.4593C80.0538 68.1597 84.0723 75.2329 89.973 80.7846C95.8738 86.3362 103.392 90.1169 111.576 91.6486C119.761 93.1803 128.245 92.3942 135.954 89.3897C143.664 86.3851 150.254 81.2971 154.89 74.7691C159.526 68.2411 162.001 60.5662 162.001 52.715C161.986 42.1912 157.535 32.1024 149.626 24.661C141.717 17.2195 130.993 13.0327 119.808 13.0186ZM122.645 86.8777V83.7639C122.645 83.0561 122.346 82.3772 121.814 81.8767C121.282 81.3761 120.56 81.095 119.808 81.095C119.055 81.095 118.334 81.3761 117.802 81.8767C117.27 82.3772 116.971 83.0561 116.971 83.7639V86.8777C108.316 86.2321 100.189 82.7082 94.0444 76.9372C87.9001 71.1663 84.1408 63.5255 83.44 55.3839H86.8063C87.5587 55.3839 88.2802 55.1027 88.8122 54.6022C89.3443 54.1017 89.6431 53.4228 89.6431 52.715C89.6431 52.0071 89.3443 51.3282 88.8122 50.8277C88.2802 50.3272 87.5587 50.046 86.8063 50.046H83.44C84.1242 41.8936 87.8767 34.2381 94.0229 28.4556C100.169 22.673 108.306 19.1426 116.971 18.4988V21.666C116.971 22.3739 117.27 23.0527 117.802 23.5532C118.334 24.0538 119.055 24.335 119.808 24.335C120.56 24.335 121.282 24.0538 121.814 23.5532C122.346 23.0527 122.645 22.3739 122.645 21.666V18.4988C131.31 19.1426 139.447 22.673 145.593 28.4556C151.739 34.2381 155.491 41.8936 156.176 50.046H152.809C152.057 50.046 151.335 50.3272 150.803 50.8277C150.271 51.3282 149.973 52.0071 149.973 52.715C149.973 53.4228 150.271 54.1017 150.803 54.6022C151.335 55.1027 152.057 55.3839 152.809 55.3839H156.176C155.475 63.5255 151.716 71.1663 145.571 76.9372C139.427 82.7082 131.299 86.2321 122.645 86.8777Z" fill="#1A5F7A"/>
<path d="M135.391 58.9429L123.496 51.8257L135.845 28.6946C136.072 28.0775 136.05 27.4037 135.784 26.8008C135.518 26.1978 135.026 25.7075 134.402 25.4226C133.777 25.1377 133.064 25.0779 132.396 25.2546C131.728 25.4313 131.152 25.8322 130.777 26.3815L117.274 51.5232C116.957 52.1132 116.884 52.7929 117.069 53.4306C117.254 54.0683 117.684 54.6186 118.276 54.9751L132.328 63.4446C132.78 63.7144 133.305 63.8564 133.841 63.8538C134.454 63.8562 135.052 63.6715 135.544 63.3273C136.036 62.9832 136.397 62.4982 136.571 61.945C136.746 61.3918 136.726 60.8003 136.513 60.2591C136.3 59.7178 135.907 59.256 135.391 58.9429ZM35.7627 60.4376C35.7627 59.7297 35.4638 59.0508 34.9318 58.5503C34.3998 58.0498 33.6782 57.7686 32.9259 57.7686H2.83681C2.08444 57.7686 1.36289 58.0498 0.830882 58.5503C0.298877 59.0508 0 59.7297 0 60.4376C0 61.1454 0.298877 61.8243 0.830882 62.3248C1.36289 62.8253 2.08444 63.1065 2.83681 63.1065H32.9637C33.7095 63.0972 34.4214 62.8119 34.9452 62.3123C35.4691 61.8128 35.7627 61.1393 35.7627 60.4376ZM16.7372 16.8621H32.9637C33.7161 16.8621 34.4376 16.5809 34.9696 16.0804C35.5016 15.5799 35.8005 14.901 35.8005 14.1931C35.8005 13.4853 35.5016 12.8064 34.9696 12.3059C34.4376 11.8054 33.7161 11.5242 32.9637 11.5242H16.7372C15.9848 11.5242 15.2632 11.8054 14.7312 12.3059C14.1992 12.8064 13.9004 13.4853 13.9004 14.1931C13.9004 14.901 14.1992 15.5799 14.7312 16.0804C15.2632 16.5809 15.9848 16.8621 16.7372 16.8621ZM13.6545 47.7332H51.0436C51.796 47.7332 52.5175 47.4521 53.0495 46.9515C53.5815 46.451 53.8804 45.7721 53.8804 45.0643C53.8804 44.3564 53.5815 43.6776 53.0495 43.177C52.5175 42.6765 51.796 42.3953 51.0436 42.3953H13.6545C12.9021 42.3953 12.1806 42.6765 11.6486 43.177C11.1166 43.6776 10.8177 44.3564 10.8177 45.0643C10.8177 45.7721 11.1166 46.451 11.6486 46.9515C12.1806 47.4521 12.9021 47.7332 13.6545 47.7332Z" fill="#1A5F7A"/>
</svg>
