<svg width="257" height="165" viewBox="0 0 257 165" fill="none" xmlns="http://www.w3.org/2000/svg">
<path d="M73.3777 23.2459C73.3777 26.464 72.6226 29.4703 71.1122 32.2649C69.6858 35.0595 67.7139 37.3883 65.1967 39.2513C62.6794 41.1144 59.7846 42.2577 56.5122 42.6811V43.1892C63.057 44.5441 68.2174 47.3387 71.9932 51.573C75.7691 55.8072 77.6571 61.0153 77.6571 67.1973C77.6571 71.9396 76.3984 76.3432 73.8812 80.4081C71.4478 84.3883 68.3432 87.3523 64.5674 89.3C62.2179 90.4856 59.3231 91.3748 55.8829 91.9676C52.4426 92.4757 47.6179 92.7297 41.4087 92.7297H0V85.3622L10.5724 82.6946V11.3054L0 8.63783V1.27027H46.0656C54.876 1.27027 61.6725 3.42973 66.4553 7.74865C68.6369 9.78108 70.3151 12.1522 71.4898 14.8622C72.7484 17.5721 73.3777 20.3667 73.3777 23.2459ZM39.269 49.6676H26.9345V83.2027H37.0035C40.8633 83.2027 43.9679 82.991 46.3173 82.5676C48.6668 82.1441 50.6386 81.4667 52.2329 80.5351C54.4984 79.3495 56.3444 77.4865 57.7708 74.9459C59.1972 72.3207 59.9105 69.3144 59.9105 65.927C59.9105 62.9631 59.3651 60.4649 58.2743 58.4324C57.1834 56.4 55.799 54.7063 54.1208 53.3513C52.6104 52.1658 50.6806 51.2766 48.3311 50.6838C45.9817 50.0063 42.961 49.6676 39.269 49.6676ZM26.9345 10.5432V40.3946H38.8915C44.765 40.3946 49.0863 38.9126 51.8553 35.9486C53.1139 34.7631 54.2047 33.2811 55.1277 31.5027C56.0507 29.6396 56.5122 27.5225 56.5122 25.1514C56.5122 22.7802 56.0507 20.6631 55.1277 18.8C54.2047 16.9369 53.1139 15.455 51.8553 14.354C49.338 11.8135 45.1846 10.5432 39.3949 10.5432H26.9345Z" fill="#2B2B29"/>
<path d="M130.175 83.8378C137.307 83.8378 142.384 82.0595 145.404 78.5027C148.425 74.8613 149.935 69.5261 149.935 62.4973V57.4162L139.363 54.7486V47.127H176.87V54.7486L166.298 57.4162V92.7297H155.977L152.83 82.6946C149.222 86.7595 145.446 89.6811 141.503 91.4595C137.643 93.1532 133.07 94 127.784 94C116.288 94 107.1 90.4432 100.22 83.3297C96.3601 79.3495 93.3394 74.3108 91.1577 68.2135C89.06 62.1162 88.0112 55.3838 88.0112 48.0162C88.0112 40.4793 89.102 33.4928 91.2836 27.0568C93.5491 20.536 96.6957 15.1586 100.723 10.9243C104.164 7.28288 108.233 4.57297 112.932 2.7946C117.631 0.931532 123.169 0 129.546 0C134.58 0 138.734 0.677476 142.006 2.03243C145.279 3.38739 148.467 5.75856 151.572 9.14594L154.089 1.27027H164.787V31.2486H153.334C152.243 24.4739 149.768 19.0541 145.908 14.9892C142.048 10.8396 136.762 8.76486 130.049 8.76486C126.273 8.76486 123.127 9.4 120.61 10.6703C118.092 11.9405 115.911 13.7613 114.065 16.1324C111.715 19.6892 109.743 24.0928 108.149 29.3432C106.555 34.509 105.758 40.1405 105.758 46.2378C105.758 52.1658 106.471 57.882 107.897 63.3865C109.408 68.891 111.505 73.5063 114.191 77.2324C115.869 79.5189 118.092 81.2126 120.861 82.3135C123.714 83.3297 126.819 83.8378 130.175 83.8378Z" fill="#2B2B29"/>
<path d="M211.564 11.3054V83.2027H242.022L246.302 61.227H257V92.7297H183.371V85.3622L195.202 82.6946V11.3054L183.371 8.63783V1.27027H224.653V8.63783L211.564 11.3054Z" fill="#2B2B29"/>
<path d="M39.5916 154V119.091H45.9155V148.699H61.2905V154H39.5916Z" fill="#2B2B29"/>
<path d="M77.9268 154.511C75.37 154.511 73.1541 153.949 71.2791 152.824C69.4041 151.699 67.9496 150.125 66.9155 148.102C65.8927 146.079 65.3814 143.716 65.3814 141.011C65.3814 138.307 65.8927 135.937 66.9155 133.903C67.9496 131.869 69.4041 130.29 71.2791 129.165C73.1541 128.04 75.37 127.477 77.9268 127.477C80.4837 127.477 82.6996 128.04 84.5746 129.165C86.4496 130.29 87.8984 131.869 88.9212 133.903C89.9552 135.937 90.4723 138.307 90.4723 141.011C90.4723 143.716 89.9552 146.079 88.9212 148.102C87.8984 150.125 86.4496 151.699 84.5746 152.824C82.6996 153.949 80.4837 154.511 77.9268 154.511ZM77.9609 149.568C79.3473 149.568 80.5064 149.187 81.4382 148.426C82.37 147.653 83.0632 146.619 83.5177 145.324C83.9837 144.028 84.2166 142.585 84.2166 140.994C84.2166 139.392 83.9837 137.943 83.5177 136.648C83.0632 135.341 82.37 134.301 81.4382 133.528C80.5064 132.756 79.3473 132.369 77.9609 132.369C76.5405 132.369 75.3587 132.756 74.4155 133.528C73.4837 134.301 72.7848 135.341 72.3189 136.648C71.8643 137.943 71.6371 139.392 71.6371 140.994C71.6371 142.585 71.8643 144.028 72.3189 145.324C72.7848 146.619 73.4837 147.653 74.4155 148.426C75.3587 149.187 76.5405 149.568 77.9609 149.568Z" fill="#2B2B29"/>
<path d="M107.096 164.364C104.88 164.364 102.977 164.062 101.386 163.46C99.7947 162.869 98.5163 162.074 97.5504 161.074C96.5845 160.074 95.9141 158.966 95.5391 157.75L101.096 156.403C101.346 156.915 101.71 157.42 102.187 157.92C102.664 158.432 103.306 158.852 104.113 159.182C104.931 159.523 105.96 159.693 107.198 159.693C108.948 159.693 110.397 159.267 111.545 158.415C112.692 157.574 113.266 156.187 113.266 154.256V149.295H112.96C112.641 149.932 112.175 150.585 111.562 151.256C110.96 151.926 110.158 152.489 109.158 152.943C108.17 153.398 106.925 153.625 105.425 153.625C103.414 153.625 101.59 153.153 99.9538 152.21C98.3288 151.256 97.0334 149.835 96.0675 147.949C95.1129 146.051 94.6356 143.676 94.6356 140.824C94.6356 137.949 95.1129 135.523 96.0675 133.545C97.0334 131.557 98.3345 130.051 99.9709 129.028C101.607 127.994 103.431 127.477 105.442 127.477C106.977 127.477 108.238 127.739 109.227 128.261C110.227 128.773 111.022 129.392 111.613 130.119C112.204 130.835 112.653 131.511 112.96 132.148H113.3V127.818H119.386V154.426C119.386 156.665 118.852 158.517 117.783 159.983C116.715 161.449 115.255 162.545 113.403 163.273C111.55 164 109.448 164.364 107.096 164.364ZM107.147 148.784C108.454 148.784 109.567 148.466 110.488 147.829C111.408 147.193 112.107 146.278 112.585 145.085C113.062 143.892 113.3 142.46 113.3 140.79C113.3 139.142 113.062 137.699 112.585 136.46C112.119 135.222 111.425 134.261 110.505 133.579C109.596 132.886 108.477 132.54 107.147 132.54C105.772 132.54 104.624 132.898 103.704 133.614C102.783 134.329 102.09 135.312 101.624 136.562C101.158 137.801 100.925 139.21 100.925 140.79C100.925 142.392 101.158 143.795 101.624 145C102.102 146.193 102.8 147.125 103.721 147.795C104.653 148.454 105.795 148.784 107.147 148.784Z" fill="#2B2B29"/>
<path d="M125.71 154V127.818H131.88V154H125.71ZM128.812 124.102C127.835 124.102 126.994 123.778 126.289 123.131C125.585 122.472 125.232 121.682 125.232 120.761C125.232 119.829 125.585 119.04 126.289 118.392C126.994 117.733 127.835 117.403 128.812 117.403C129.8 117.403 130.641 117.733 131.335 118.392C132.039 119.04 132.391 119.829 132.391 120.761C132.391 121.682 132.039 122.472 131.335 123.131C130.641 123.778 129.8 124.102 128.812 124.102Z" fill="#2B2B29"/>
<path d="M158.918 134.739L153.293 135.352C153.134 134.784 152.856 134.25 152.458 133.75C152.072 133.25 151.549 132.847 150.89 132.54C150.231 132.233 149.424 132.079 148.469 132.079C147.185 132.079 146.106 132.358 145.231 132.915C144.367 133.472 143.941 134.193 143.952 135.079C143.941 135.841 144.219 136.46 144.788 136.937C145.367 137.415 146.322 137.807 147.651 138.114L152.117 139.068C154.594 139.602 156.435 140.449 157.64 141.608C158.856 142.767 159.469 144.284 159.481 146.159C159.469 147.807 158.987 149.261 158.032 150.523C157.089 151.773 155.776 152.75 154.094 153.454C152.413 154.159 150.481 154.511 148.299 154.511C145.094 154.511 142.515 153.841 140.56 152.5C138.606 151.148 137.441 149.267 137.066 146.858L143.083 146.278C143.356 147.46 143.935 148.352 144.822 148.954C145.708 149.557 146.862 149.858 148.282 149.858C149.748 149.858 150.924 149.557 151.81 148.954C152.708 148.352 153.157 147.608 153.157 146.722C153.157 145.972 152.867 145.352 152.288 144.864C151.719 144.375 150.833 144 149.629 143.739L145.163 142.801C142.651 142.278 140.793 141.398 139.589 140.159C138.384 138.909 137.788 137.329 137.799 135.42C137.788 133.807 138.225 132.409 139.112 131.227C140.009 130.034 141.254 129.114 142.844 128.466C144.447 127.807 146.293 127.477 148.384 127.477C151.452 127.477 153.867 128.131 155.629 129.437C157.401 130.744 158.498 132.511 158.918 134.739Z" fill="#2B2B29"/>
<path d="M177.643 127.818V132.591H162.592V127.818H177.643ZM166.308 121.545H172.478V146.125C172.478 146.954 172.603 147.591 172.853 148.034C173.114 148.466 173.455 148.761 173.876 148.92C174.296 149.079 174.762 149.159 175.273 149.159C175.66 149.159 176.012 149.131 176.33 149.074C176.66 149.017 176.91 148.966 177.08 148.92L178.12 153.744C177.79 153.858 177.319 153.983 176.705 154.119C176.103 154.256 175.364 154.335 174.489 154.358C172.944 154.403 171.552 154.17 170.313 153.659C169.075 153.136 168.092 152.329 167.364 151.239C166.648 150.148 166.296 148.784 166.308 147.148V121.545Z" fill="#2B2B29"/>
<path d="M182.803 154V127.818H188.974V154H182.803ZM185.906 124.102C184.928 124.102 184.087 123.778 183.383 123.131C182.678 122.472 182.326 121.682 182.326 120.761C182.326 119.829 182.678 119.04 183.383 118.392C184.087 117.733 184.928 117.403 185.906 117.403C186.894 117.403 187.735 117.733 188.428 118.392C189.133 119.04 189.485 119.829 189.485 120.761C189.485 121.682 189.133 122.472 188.428 123.131C187.735 123.778 186.894 124.102 185.906 124.102Z" fill="#2B2B29"/>
<path d="M206.739 154.511C204.126 154.511 201.881 153.937 200.006 152.79C198.143 151.642 196.705 150.057 195.694 148.034C194.694 146 194.194 143.659 194.194 141.011C194.194 138.352 194.705 136.006 195.728 133.972C196.751 131.926 198.194 130.335 200.058 129.199C201.933 128.051 204.148 127.477 206.705 127.477C208.83 127.477 210.711 127.869 212.347 128.653C213.995 129.426 215.308 130.523 216.285 131.943C217.262 133.352 217.819 135 217.955 136.886H212.058C211.819 135.625 211.251 134.574 210.353 133.733C209.467 132.881 208.279 132.454 206.79 132.454C205.529 132.454 204.421 132.795 203.467 133.477C202.512 134.148 201.768 135.114 201.234 136.375C200.711 137.636 200.45 139.148 200.45 140.909C200.45 142.693 200.711 144.227 201.234 145.511C201.756 146.784 202.489 147.767 203.433 148.46C204.387 149.142 205.506 149.483 206.79 149.483C207.7 149.483 208.512 149.312 209.228 148.972C209.955 148.619 210.563 148.114 211.052 147.454C211.54 146.795 211.876 145.994 212.058 145.051H217.955C217.808 146.903 217.262 148.545 216.319 149.977C215.376 151.398 214.092 152.511 212.467 153.318C210.842 154.114 208.933 154.511 206.739 154.511Z" fill="#2B2B29"/>
</svg>
