<svg width="53" height="53" viewBox="0 0 53 53" fill="none" xmlns="http://www.w3.org/2000/svg">
<path d="M16.5997 10.8375C23.3852 10.2358 30.209 10.2358 36.9945 10.8375L40.2636 11.1275C42.4399 11.3205 44.3038 12.6447 45.2696 14.539C45.3932 14.7813 45.3006 15.0747 45.0729 15.2185L31.5092 23.7844C28.6001 25.6216 24.9321 25.6601 21.9866 23.8845L8.33221 15.6533C8.11161 15.5203 8.01035 15.2465 8.10977 15.0056C8.99329 12.8645 10.9797 11.3359 13.3306 11.1275L16.5997 10.8375Z" fill="#2B2B29"/>
<path d="M8.09866 19.3601C7.76105 19.1566 7.33027 19.3756 7.29092 19.7736C6.74167 25.329 6.8746 30.9369 7.68972 36.4668C8.11944 39.3821 10.4517 41.617 13.3306 41.8723L16.5997 42.1622C23.3852 42.764 30.209 42.764 36.9945 42.1622L40.2636 41.8723C43.1425 41.617 45.4748 39.3821 45.9045 36.4668C46.7433 30.7758 46.8597 25.0021 46.2535 19.2881C46.211 18.8872 45.7729 18.6723 45.4369 18.8845L33.2182 26.601C29.2825 29.0865 24.3198 29.1387 20.3347 26.7363L8.09866 19.3601Z" fill="#2B2B29"/>
</svg>
