<svg width="68" height="110" viewBox="0 0 68 110" fill="none" xmlns="http://www.w3.org/2000/svg">
<path d="M19.5283 49.0446C21.2987 59.1073 26.8963 68.1936 35.2414 74.4958L36.5705 75.5369C39.6114 77.9189 43.9846 77.8413 46.9329 75.3531L49.694 73.0229C50.5916 72.2652 50.7417 70.9704 50.0395 70.0397L44.7971 63.0902C44.027 62.0695 42.5326 61.8735 41.5089 62.6589L38.6905 64.8214C34.0826 60.9136 30.9274 55.6296 29.732 49.8187L33.0795 48.5425C34.2954 48.0789 34.8675 46.7304 34.3383 45.5753L30.7353 37.7113C30.2528 36.6583 29.0181 36.1359 27.8903 36.5076L24.3975 37.6587C20.6702 38.8872 18.41 42.5417 19.0556 46.2961L19.5276 49.0405L19.5283 49.0446Z" fill="#2B2B29"/>
</svg>
