<svg width="271" height="147" viewBox="0 0 271 147" fill="none" xmlns="http://www.w3.org/2000/svg">
<path d="M129.54 82V63.2382L114.097 35.1223C109.918 27.5527 101.924 22.8667 93.3853 22.8667H37.0634C28.3426 22.8667 20.5302 27.5527 16.3515 35.1223L0.181683 64.4998C0.181683 64.4998 0.181683 64.4998 0.181683 64.6801C-1.78814e-07 64.8603 0 65.0405 0 65.2207V65.401C0 65.5812 0 65.9417 0 66.1219V109.377C0 111.36 1.63515 112.982 3.63367 112.982H18.5317C20.1669 121.272 27.6159 127.4 36.3367 127.4C45.0575 127.4 52.5065 121.272 54.1417 112.982H109.373C111.009 121.272 118.458 127.4 127.178 127.4C135.899 127.4 125.669 116.291 127.304 108L139.5 98L150.5 100.5C152.499 100.5 163.333 111.36 163.333 109.377C163.333 105.224 163.333 87.5 163.333 87.5L157.5 86C157.5 84.8775 152.026 84.1597 146.5 82C144.041 81.0389 130.044 82.1665 129.54 82ZM59.7739 30.2561H93.3853C99.3808 30.2561 104.831 33.5003 107.738 38.7269L120.819 62.6975H59.7739V30.2561ZM22.7104 38.7269C25.6174 33.5003 31.0679 30.2561 37.0634 30.2561H52.5065V62.6975H9.62922L22.7104 38.7269ZM18.35 105.953H7.08565V98.7435H21.6203C19.9852 100.906 18.8951 103.249 18.35 105.953ZM36.155 120.371C30.1595 120.371 25.254 115.505 25.254 109.557C25.254 103.61 30.1595 98.7435 36.155 98.7435C42.1506 98.7435 47.056 103.61 47.056 109.557C47.056 115.505 42.1506 120.371 36.155 120.371ZM126.997 120.371C121.001 120.371 116.096 115.505 116.096 109.557C116.096 103.61 121.001 98.7435 126.997 98.7435C132.992 98.7435 127.178 103.61 127.178 109.557C127.178 115.505 132.992 120.371 126.997 120.371ZM156.066 105.953C151.667 105.953 148.5 98.7435 148.5 98.7435C147.476 93.5497 140.471 96.4139 136 93.8926C133.334 92.3893 130.254 91.5343 126.997 91.5343C118.276 91.5343 110.827 97.6621 109.192 105.953H53.96C52.3248 97.6621 44.8758 91.5343 36.155 91.5343H7.08565V69.9067H126.452L127.178 84.5L137.5 83L156.066 84.5C156.066 84.5 156.066 91.2828 156.066 98.7435C156.066 101.559 156.066 103.137 156.066 105.953Z" fill="#1A5F7A"/>
<path d="M129 83.9999C127.447 82.1398 126.289 83.9999 129 83.9999ZM129 83.9999H146.067M129 83.9999C119.5 73.5 141.693 62.0666 143 62.0666C144.307 62.0666 154.5 58.9999 161 67.9999L167.3 73.5L178.733 75.1333C178.733 75.1333 188.533 76.7666 188.533 70.2333C188.533 63.7 195.067 62.0666 195.067 62.0666L196.7 60.4333H212.707C212.707 49.3346 212.707 37.8931 212.707 37.8931C212.707 32.2091 208.917 28.4198 203.233 28.4198H184.287H175.761H135.973H127.447H108C102.316 28.4198 126.5 61.3159 126.5 66.9999L124 63.4999C123.026 64.9611 122.514 64.5268 127.447 67.9999M129 83.9999C124 78.4736 126.5 78.4999 127.447 67.9999M129 83.9999L127.447 67.9999" stroke="#1A5F7A" stroke-width="8" stroke-miterlimit="10"/>
<path d="M179.55 42.63C176.708 42.63 174.813 40.7354 174.813 37.8934V14.21C174.813 11.368 172.919 9.47334 170.077 9.47334H141.657C138.815 9.47334 136.92 11.368 136.92 14.21V37.8934C136.92 40.7354 135.025 42.63 132.183 42.63C129.341 42.63 127.447 40.7354 127.447 37.8934V14.21C127.447 6.63134 134.078 0 141.657 0H170.077C177.655 0 184.287 6.63134 184.287 14.21V37.8934C184.287 40.7354 182.392 42.63 179.55 42.63Z" fill="#1A5F7A"/>
<path d="M233.45 88.1999H251.417C253.897 88.1999 255.909 86.1885 255.909 83.7082V79.2165C255.909 56.9271 237.773 38.7915 215.484 38.7915C213.003 38.7915 210.992 40.8029 210.992 43.2832V56.7582H197.517C190.086 56.7582 184.042 62.8026 184.042 70.2332H168.479L166.163 66.7593C161.989 60.4975 155.004 56.7582 147.477 56.7582C132.964 56.7582 121.159 68.5641 121.159 83.0767V83.7082C121.159 86.1885 123.17 88.1999 125.65 88.1999H143.617C156.945 88.1999 168.013 97.9329 170.161 110.658H165.622C163.534 100.42 154.462 92.6915 143.617 92.6915C131.234 92.6915 121.159 102.767 121.159 115.15C121.159 127.533 131.234 137.608 143.617 137.608C154.462 137.608 163.534 129.879 165.621 119.642H175.059H202.009C204.489 119.642 206.5 117.632 206.5 115.15C206.5 107.152 210.021 99.9788 215.571 95.0389L218.003 98.926C213.705 103.02 210.992 108.76 210.992 115.15C210.992 127.533 221.068 137.608 233.45 137.608C245.833 137.608 255.909 127.533 255.909 115.15C255.909 102.767 245.833 92.6915 233.45 92.6915C230.689 92.6915 228.072 93.2602 225.627 94.1765L223.169 90.2481C226.34 88.9343 229.81 88.1999 233.45 88.1999ZM233.45 101.675C240.881 101.675 246.925 107.719 246.925 115.15C246.925 122.58 240.881 128.625 233.45 128.625C226.02 128.625 219.975 122.58 219.975 115.15C219.975 111.99 221.113 109.12 222.941 106.819L229.643 117.531C230.494 118.896 231.959 119.642 233.455 119.642C234.269 119.642 235.093 119.422 235.832 118.957C237.936 117.641 238.574 114.869 237.258 112.768L230.53 102.014C231.473 101.804 232.445 101.675 233.45 101.675ZM143.617 128.625C136.186 128.625 130.142 122.58 130.142 115.15C130.142 107.719 136.186 101.675 143.617 101.675C149.465 101.675 154.404 105.441 156.264 110.658H143.617C141.137 110.658 139.125 112.667 139.125 115.15C139.125 117.632 141.137 119.642 143.617 119.642H156.264C154.404 124.859 149.465 128.625 143.617 128.625ZM197.795 110.658H179.272C177.052 92.9592 161.908 79.2165 143.617 79.2165H130.576C132.335 71.5097 139.244 65.7415 147.477 65.7415C151.993 65.7415 156.184 67.9851 158.689 71.7419L162.338 77.2164C163.171 78.4664 164.573 79.2165 166.075 79.2165H188.534C191.014 79.2165 193.025 77.2052 193.025 74.7249V70.2332C193.025 67.7569 195.041 65.7415 197.517 65.7415H215.484C217.964 65.7415 219.975 63.7301 219.975 61.2498V48.0951C235.192 50.2816 246.925 63.4036 246.925 79.2165H233.45C226.46 79.2165 219.938 81.2351 214.413 84.7027C214.411 84.7044 214.407 84.7044 214.407 84.7044C214.401 84.7085 214.399 84.7125 214.395 84.7152C205.472 90.3231 199.166 99.7304 197.795 110.658Z" fill="#1A5F7A"/>
</svg>
